<svg width="252" height="51" viewBox="0 0 252 51" fill="none" xmlns="http://www.w3.org/2000/svg">
<path d="M42 0H8.8421C3.95875 0 0 3.95482 0 8.83333V41.9583C0 46.8368 3.95875 50.7917 8.8421 50.7917H42C46.8834 50.7917 50.8421 46.8368 50.8421 41.9583V8.83333C50.8421 3.95482 46.8834 0 42 0Z" fill="#C63906"/>
<path d="M30.717 31.7444H20.1251C19.8441 31.7444 19.5747 31.6329 19.376 31.4345C19.1774 31.236 19.0658 30.9668 19.0658 30.6864V20.1047C19.0658 19.8241 19.1774 19.555 19.376 19.3565C19.5747 19.1581 19.8441 19.0466 20.1251 19.0466H30.717C30.998 19.0466 31.2675 19.1581 31.4662 19.3565C31.6647 19.555 31.7763 19.8241 31.7763 20.1047V30.6864C31.7763 30.9668 31.6647 31.236 31.4662 31.4345C31.2675 31.6329 30.998 31.7444 30.717 31.7444ZM21.1841 29.6281H29.658V21.1629H21.1841V29.6281Z" fill="white"/>
<path d="M17.0534 14.8142C16.9822 14.8144 16.9112 14.8074 16.8415 14.7931C16.7052 14.7653 16.5757 14.711 16.4604 14.6332C16.3451 14.5554 16.2462 14.4557 16.1695 14.3398C16.0928 14.2238 16.0397 14.0939 16.0132 13.9574C15.9868 13.821 15.9875 13.6806 16.0153 13.5445C16.3106 12.1115 17.0912 10.824 18.2256 9.89885C19.3601 8.97369 20.7791 8.46743 22.2434 8.46533C22.5243 8.46533 22.7938 8.57683 22.9925 8.77527C23.191 8.97371 23.3027 9.24284 23.3027 9.5235C23.3027 9.80413 23.191 10.0733 22.9925 10.2717C22.7938 10.4702 22.5243 10.5816 22.2434 10.5816C21.2668 10.5814 20.32 10.9184 19.5633 11.5354C18.8067 12.1525 18.2867 13.0117 18.0914 13.9677C18.0425 14.2067 17.9125 14.4215 17.7234 14.5758C17.5342 14.7301 17.2975 14.8143 17.0534 14.8142Z" fill="white"/>
<path d="M13.0942 20.7609C12.8882 20.7609 12.6867 20.7009 12.5144 20.588C12.3421 20.4752 12.2064 20.3146 12.124 20.1261C11.8171 19.455 11.6561 18.7265 11.6516 17.9886C11.6516 16.5855 12.2096 15.2397 13.2028 14.2475C14.196 13.2553 15.543 12.6979 16.9477 12.6979C17.2341 12.696 17.5102 12.8052 17.7176 13.0026C17.9251 13.2 18.0477 13.4701 18.0598 13.756C18.0658 13.8922 18.0443 14.0281 17.9965 14.1557C17.9487 14.2833 17.8757 14.4 17.7818 14.4987C17.6878 14.5975 17.5749 14.6763 17.4498 14.7305C17.3247 14.7847 17.19 14.8132 17.0536 14.8142C16.6284 14.8038 16.2055 14.878 15.8093 15.0326C15.4132 15.1871 15.0518 15.4188 14.7461 15.7143C14.4405 16.0097 14.1968 16.363 14.0293 16.7534C13.8617 17.1439 13.7735 17.5638 13.77 17.9886C13.7725 18.4337 13.8723 18.8728 14.0624 19.2754C14.1326 19.4362 14.1618 19.612 14.1471 19.7868C14.1325 19.9618 14.0745 20.1302 13.9785 20.2771C13.8825 20.424 13.7514 20.5448 13.597 20.6284C13.4427 20.7124 13.2699 20.7563 13.0942 20.7567V20.7609Z" fill="white"/>
<path d="M22.2448 42.3263C20.661 42.3203 19.136 41.7265 17.9662 40.6599C16.7963 39.5933 16.0652 38.1302 15.9149 36.5553C15.8904 36.2746 15.9786 35.9957 16.16 35.7801C16.3413 35.5644 16.601 35.4294 16.8819 35.4052C17.1629 35.3806 17.442 35.4687 17.6579 35.6498C17.8738 35.8311 18.0089 36.0904 18.0333 36.3711C18.1341 37.4187 18.6208 38.3915 19.399 39.1008C20.1771 39.8101 21.1913 40.2054 22.2448 40.21C22.5255 40.21 22.795 40.3216 22.9937 40.5201C23.1922 40.7184 23.3039 40.9876 23.3039 41.2683C23.3039 41.549 23.1922 41.8179 22.9937 42.0165C22.795 42.215 22.5255 42.3263 22.2448 42.3263Z" fill="white"/>
<path d="M14.8295 38.0937C14.134 38.0937 13.4453 37.9568 12.8027 37.6909C12.1602 37.4251 11.5764 37.0353 11.0846 36.5439C10.0914 35.5517 9.53339 34.2062 9.53339 32.8028C9.5247 32.1571 9.6484 31.5164 9.89686 30.9204C10.1453 30.3242 10.5133 29.7851 10.9782 29.3364C11.1905 29.1526 11.4673 29.0606 11.7476 29.0807C12.0279 29.1008 12.2887 29.231 12.4727 29.4433C12.6567 29.6555 12.7488 29.932 12.7287 30.212C12.7087 30.492 12.5781 30.7526 12.3657 30.9363C11.892 31.4409 11.6357 32.1114 11.6518 32.8028C11.6518 33.6448 11.9866 34.4522 12.5825 35.0476C13.1784 35.6429 13.9867 35.9773 14.8295 35.9773C15.397 35.9766 15.9544 35.8271 16.4458 35.5436C16.5669 35.4738 16.7006 35.4287 16.8392 35.4108C16.9777 35.393 17.1185 35.4027 17.2533 35.4395C17.3881 35.4762 17.5143 35.5394 17.6246 35.6248C17.7349 35.7105 17.8272 35.8172 17.8961 35.9386C17.965 36.0601 18.0092 36.1939 18.026 36.3326C18.0429 36.4711 18.0322 36.6117 17.9944 36.746C17.9567 36.8805 17.8927 37.0061 17.8062 37.1157C17.7197 37.2254 17.6122 37.3166 17.4902 37.3846C16.6806 37.8493 15.7632 38.0937 14.8295 38.0937Z" fill="white"/>
<path d="M15.8886 32.8028C13.9221 32.8028 12.0363 32.0226 10.6458 30.6333C9.25528 29.2443 8.47412 27.3603 8.47412 25.3958C8.47412 23.4313 9.25528 21.5473 10.6458 20.1583C12.0363 18.7692 13.9221 17.9888 15.8886 17.9888C16.1695 17.9888 16.4389 18.1003 16.6376 18.2987C16.8362 18.4971 16.9478 18.7663 16.9478 19.0469C16.9478 19.3276 16.8362 19.5967 16.6376 19.7952C16.4389 19.9936 16.1695 20.1051 15.8886 20.1051C14.484 20.1051 13.1369 20.6625 12.1437 21.6547C11.1505 22.6469 10.5925 23.9926 10.5925 25.3958C10.5925 26.799 11.1505 28.1447 12.1437 29.1369C13.1369 30.1291 14.484 30.6865 15.8886 30.6865C16.1695 30.6865 16.4389 30.7981 16.6376 30.9966C16.8362 31.1949 16.9478 31.4641 16.9478 31.7448C16.9478 32.0254 16.8362 32.2944 16.6376 32.4929C16.4389 32.6915 16.1695 32.8028 15.8886 32.8028Z" fill="white"/>
<path d="M22.2439 42.3264C21.9629 42.3264 21.6934 42.2149 21.4947 42.0166C21.2962 41.8181 21.1846 41.5489 21.1846 41.2684V37.0357C21.1846 36.755 21.2962 36.4861 21.4947 36.2875C21.6934 36.089 21.9629 35.9775 22.2439 35.9775C22.5246 35.9775 22.7941 36.089 22.9928 36.2875C23.1913 36.4861 23.3029 36.755 23.3029 37.0357V41.2684C23.3029 41.5489 23.1913 41.8181 22.9928 42.0166C22.7941 42.2149 22.5246 42.3264 22.2439 42.3264Z" fill="white"/>
<path d="M22.2439 12.6979C21.9629 12.6979 21.6934 12.5865 21.4947 12.388C21.2962 12.1896 21.1846 11.9204 21.1846 11.6398V9.5235C21.1846 9.24284 21.2962 8.97371 21.4947 8.77527C21.6934 8.57683 21.9629 8.46533 22.2439 8.46533C22.5246 8.46533 22.7941 8.57683 22.9928 8.77527C23.1913 8.97371 23.3029 9.24284 23.3029 9.5235V11.6398C23.3029 11.9204 23.1913 12.1896 22.9928 12.388C22.7941 12.5865 22.5246 12.6979 22.2439 12.6979Z" fill="white"/>
<path d="M33.7892 14.8142C33.5449 14.8143 33.3082 14.7301 33.1192 14.5758C32.9299 14.4215 32.8 14.2067 32.7511 13.9677C32.5557 13.0117 32.0358 12.1525 31.2791 11.5354C30.5225 10.9184 29.5757 10.5814 28.5991 10.5816C28.3181 10.5816 28.0487 10.4702 27.8499 10.2717C27.6514 10.0733 27.5398 9.80413 27.5398 9.5235C27.5398 9.24284 27.6514 8.97371 27.8499 8.77527C28.0487 8.57683 28.3181 8.46533 28.5991 8.46533C30.0636 8.46743 31.4825 8.97369 32.6169 9.89885C33.7514 10.824 34.5319 12.1115 34.8272 13.5445C34.8546 13.6808 34.8549 13.8212 34.8281 13.9576C34.8012 14.0941 34.7477 14.2239 34.6705 14.3397C34.5934 14.4554 34.4943 14.5549 34.3787 14.6323C34.2629 14.7097 34.1331 14.7637 33.9967 14.791C33.9284 14.8057 33.859 14.8135 33.7892 14.8142Z" fill="white"/>
<path d="M37.7489 20.7609C37.5732 20.7605 37.4003 20.7166 37.246 20.6326C37.0917 20.5489 36.9606 20.4281 36.8645 20.2813C36.7686 20.1344 36.7106 19.9659 36.696 19.791C36.6812 19.6161 36.7104 19.4404 36.7807 19.2796C36.9715 18.8758 37.0712 18.4351 37.0729 17.9886C37.0729 17.1467 36.7383 16.3393 36.1423 15.7439C35.5464 15.1486 34.7382 14.8142 33.8953 14.8142C33.6088 14.8161 33.333 14.7068 33.1254 14.5095C32.918 14.3121 32.7954 14.042 32.7832 13.756C32.7772 13.6199 32.7989 13.484 32.8466 13.3564C32.8944 13.2288 32.9673 13.1121 33.0613 13.0134C33.1552 12.9146 33.2682 12.8357 33.3933 12.7815C33.5184 12.7273 33.653 12.6989 33.7894 12.6979H33.8953C35.3001 12.6979 36.647 13.2553 37.6404 14.2475C38.6336 15.2397 39.1915 16.5854 39.1915 17.9886C39.1875 18.7279 39.0266 19.4579 38.7191 20.1302C38.636 20.3182 38.5001 20.4778 38.3279 20.5898C38.1554 20.7018 37.9543 20.7612 37.7489 20.7609Z" fill="white"/>
<path d="M28.5991 42.3267C28.3181 42.3267 28.0487 42.2152 27.8499 42.0167C27.6514 41.8184 27.5398 41.5492 27.5398 41.2685C27.5398 40.9878 27.6514 40.7189 27.8499 40.5203C28.0487 40.3218 28.3181 40.2105 28.5991 40.2105C29.6535 40.2078 30.6695 39.8139 31.4493 39.1048C32.2292 38.3957 32.7175 37.4223 32.819 36.3735C32.8309 36.2346 32.8705 36.0995 32.9348 35.9756C32.9991 35.8519 33.0873 35.7419 33.1943 35.6523C33.3011 35.5626 33.4247 35.4948 33.558 35.4529C33.691 35.4107 33.8312 35.3954 33.9702 35.4074C34.1093 35.4195 34.2448 35.4588 34.3686 35.5233C34.4926 35.5876 34.6024 35.6757 34.6922 35.7826C34.7821 35.8892 34.85 36.0127 34.892 36.1458C34.934 36.2788 34.9495 36.4188 34.9373 36.5577C34.7863 38.1338 34.0538 39.5975 32.8822 40.6639C31.7106 41.73 30.1838 42.323 28.5991 42.3267Z" fill="white"/>
<path d="M36.0137 38.0937C35.08 38.0937 34.1626 37.8493 33.3529 37.3846C33.2309 37.3166 33.1234 37.2254 33.0368 37.1157C32.9503 37.0061 32.8865 36.8805 32.8487 36.746C32.8109 36.6117 32.8003 36.4711 32.8171 36.3326C32.8339 36.1939 32.8781 36.0601 32.947 35.9386C33.0158 35.8172 33.1082 35.7105 33.2185 35.6248C33.3288 35.5394 33.455 35.4762 33.5899 35.4395C33.7245 35.4027 33.8653 35.393 34.0039 35.4108C34.1425 35.4287 34.2762 35.4738 34.3974 35.5436C34.8888 35.8271 35.446 35.9766 36.0137 35.9773C36.8563 35.9773 37.6645 35.6429 38.2605 35.0476C38.8564 34.4522 39.1913 33.6448 39.1913 32.8028C39.2075 32.1114 38.951 31.4409 38.4773 30.9363C38.3721 30.8453 38.2859 30.7345 38.2238 30.6101C38.1614 30.4858 38.1243 30.3507 38.1144 30.212C38.1044 30.0733 38.1219 29.934 38.1659 29.8021C38.2099 29.6703 38.2793 29.5484 38.3703 29.4433C38.4614 29.3381 38.5724 29.252 38.6968 29.19C38.8213 29.1277 38.9568 29.0906 39.0954 29.0807C39.2342 29.0707 39.3737 29.0882 39.5057 29.1321C39.6376 29.1761 39.7597 29.2454 39.8649 29.3364C40.3297 29.7851 40.6978 30.3242 40.9463 30.9204C41.1947 31.5164 41.3183 32.1571 41.3097 32.8028C41.3097 34.2062 40.7517 35.5517 39.7585 36.5439C38.7654 37.5361 37.4183 38.0937 36.0137 38.0937Z" fill="white"/>
<path d="M34.9543 32.8028C34.6733 32.8028 34.4039 32.6915 34.2052 32.4929C34.0067 32.2944 33.895 32.0254 33.895 31.7448C33.895 31.4641 34.0067 31.1949 34.2052 30.9966C34.4039 30.7981 34.6733 30.6865 34.9543 30.6865C36.3589 30.6865 37.706 30.1291 38.6992 29.1369C39.6923 28.1447 40.2503 26.799 40.2503 25.3958C40.2503 23.9926 39.6923 22.6469 38.6992 21.6547C37.706 20.6625 36.3589 20.1051 34.9543 20.1051C34.6733 20.1051 34.4039 19.9936 34.2052 19.7951C34.0067 19.5967 33.895 19.3276 33.895 19.0469C33.895 18.7663 34.0067 18.4971 34.2052 18.2987C34.4039 18.1003 34.6733 17.9888 34.9543 17.9888C36.9206 17.9888 38.8066 18.7692 40.197 20.1583C41.5874 21.5473 42.3686 23.4313 42.3686 25.3958C42.3686 27.3603 41.5874 29.2443 40.197 30.6333C38.8066 32.0226 36.9206 32.8028 34.9543 32.8028Z" fill="white"/>
<path d="M28.5991 42.3264C28.3181 42.3264 28.0487 42.2149 27.8499 42.0166C27.6514 41.8181 27.5398 41.5489 27.5398 41.2684V37.0357C27.5398 36.755 27.6514 36.4861 27.8499 36.2875C28.0487 36.089 28.3181 35.9775 28.5991 35.9775C28.8798 35.9775 29.1493 36.089 29.348 36.2875C29.5465 36.4861 29.6581 36.755 29.6581 37.0357V41.2684C29.6581 41.5489 29.5465 41.8181 29.348 42.0166C29.1493 42.2149 28.8798 42.3264 28.5991 42.3264Z" fill="white"/>
<path d="M28.5991 12.6979C28.3181 12.6979 28.0487 12.5865 27.8499 12.388C27.6514 12.1896 27.5398 11.9204 27.5398 11.6398V9.5235C27.5398 9.24284 27.6514 8.97371 27.8499 8.77527C28.0487 8.57683 28.3181 8.46533 28.5991 8.46533C28.8798 8.46533 29.1493 8.57683 29.348 8.77527C29.5465 8.97371 29.6581 9.24284 29.6581 9.5235V11.6398C29.6581 11.9204 29.5465 12.1896 29.348 12.388C29.1493 12.5865 28.8798 12.6979 28.5991 12.6979Z" fill="white"/>
<path d="M22.2439 21.1633C21.9629 21.1633 21.6934 21.0518 21.4947 20.8535C21.2962 20.655 21.1846 20.3858 21.1846 20.1051V17.9889C21.1846 17.7082 21.2962 17.4391 21.4947 17.2406C21.6934 17.0422 21.9629 16.9307 22.2439 16.9307C22.5246 16.9307 22.7941 17.0422 22.9928 17.2406C23.1913 17.4391 23.3029 17.7082 23.3029 17.9889V20.1051C23.3029 20.3858 23.1913 20.655 22.9928 20.8535C22.7941 21.0518 22.5246 21.1633 22.2439 21.1633Z" fill="white"/>
<path d="M28.5991 21.1633C28.3181 21.1633 28.0487 21.0518 27.8499 20.8535C27.6514 20.655 27.5398 20.3858 27.5398 20.1051V17.9889C27.5398 17.7082 27.6514 17.4391 27.8499 17.2406C28.0487 17.0422 28.3181 16.9307 28.5991 16.9307C28.8798 16.9307 29.1493 17.0422 29.348 17.2406C29.5465 17.4391 29.6581 17.7082 29.6581 17.9889V20.1051C29.6581 20.3858 29.5465 20.655 29.348 20.8535C29.1493 21.0518 28.8798 21.1633 28.5991 21.1633Z" fill="white"/>
<path d="M22.2439 33.8611C21.9629 33.8611 21.6934 33.7495 21.4947 33.551C21.2962 33.3527 21.1846 33.0835 21.1846 32.8028V30.6866C21.1846 30.4059 21.2962 30.1367 21.4947 29.9384C21.6934 29.7399 21.9629 29.6284 22.2439 29.6284C22.5246 29.6284 22.7941 29.7399 22.9928 29.9384C23.1913 30.1367 23.3029 30.4059 23.3029 30.6866V32.8028C23.3029 33.0835 23.1913 33.3527 22.9928 33.551C22.7941 33.7495 22.5246 33.8611 22.2439 33.8611Z" fill="white"/>
<path d="M28.5991 33.8611C28.3181 33.8611 28.0487 33.7495 27.8499 33.551C27.6514 33.3527 27.5398 33.0835 27.5398 32.8028V30.6866C27.5398 30.4059 27.6514 30.1367 27.8499 29.9384C28.0487 29.7399 28.3181 29.6284 28.5991 29.6284C28.8798 29.6284 29.1493 29.7399 29.348 29.9384C29.5465 30.1367 29.6581 30.4059 29.6581 30.6866V32.8028C29.6581 33.0835 29.5465 33.3527 29.348 33.551C29.1493 33.7495 28.8798 33.8611 28.5991 33.8611Z" fill="white"/>
<path d="M20.1257 29.6285H18.0072C17.7263 29.6285 17.4569 29.517 17.2582 29.3187C17.0596 29.1202 16.948 28.851 16.948 28.5703C16.948 28.2898 17.0596 28.0206 17.2582 27.8221C17.4569 27.6238 17.7263 27.5123 18.0072 27.5123H20.1257C20.4066 27.5123 20.6761 27.6238 20.8746 27.8221C21.0733 28.0206 21.1849 28.2898 21.1849 28.5703C21.1849 28.851 21.0733 29.1202 20.8746 29.3187C20.6761 29.517 20.4066 29.6285 20.1257 29.6285Z" fill="white"/>
<path d="M20.1257 23.2794H18.0072C17.7263 23.2794 17.4569 23.1679 17.2582 22.9693C17.0596 22.771 16.948 22.5018 16.948 22.2212C16.948 21.9405 17.0596 21.6715 17.2582 21.473C17.4569 21.2744 17.7263 21.1631 18.0072 21.1631H20.1257C20.4066 21.1631 20.6761 21.2744 20.8746 21.473C21.0733 21.6715 21.1849 21.9405 21.1849 22.2212C21.1849 22.5018 21.0733 22.771 20.8746 22.9693C20.6761 23.1679 20.4066 23.2794 20.1257 23.2794Z" fill="white"/>
<path d="M32.8351 29.6285H30.7168C30.4358 29.6285 30.1663 29.517 29.9676 29.3187C29.7691 29.1202 29.6575 28.851 29.6575 28.5703C29.6575 28.2898 29.7691 28.0206 29.9676 27.8221C30.1663 27.6238 30.4358 27.5123 30.7168 27.5123H32.8351C33.1161 27.5123 33.3855 27.6238 33.584 27.8221C33.7828 28.0206 33.8944 28.2898 33.8944 28.5703C33.8944 28.851 33.7828 29.1202 33.584 29.3187C33.3855 29.517 33.1161 29.6285 32.8351 29.6285Z" fill="white"/>
<path d="M32.8351 23.2794H30.7168C30.4358 23.2794 30.1663 23.1679 29.9676 22.9693C29.7691 22.771 29.6575 22.5018 29.6575 22.2212C29.6575 21.9405 29.7691 21.6715 29.9676 21.473C30.1663 21.2744 30.4358 21.1631 30.7168 21.1631H32.8351C33.1161 21.1631 33.3855 21.2744 33.584 21.473C33.7828 21.6715 33.8944 21.9405 33.8944 22.2212C33.8944 22.5018 33.7828 22.771 33.584 22.9693C33.3855 23.1679 33.1161 23.2794 32.8351 23.2794Z" fill="white"/>
<path d="M81.592 1C71.864 1 67 8.744 67 24.616C67 40.488 71.864 48.232 81.592 48.232C84.92 48.232 87.672 47.272 89.848 45.416L94.456 49.896L96.696 47.464L92.024 42.984C94.84 39.144 96.184 33 96.184 24.616C96.184 8.808 91.192 1 81.592 1ZM71.096 24.616C71.096 11.112 74.488 4.456 81.528 4.456C88.696 4.456 92.088 10.92 92.088 24.616C92.088 31.976 91.128 36.776 89.336 40.104L84.408 35.304L82.168 37.736L87.352 42.728C85.816 44.072 84.088 44.776 81.592 44.776C74.552 44.776 71.096 38.376 71.096 24.616Z" fill="#C63906"/>
<path d="M101.347 1.76801V34.856C101.347 43.432 105.187 48.232 114.403 48.232C123.619 48.232 127.458 43.432 127.458 34.856V1.76801H123.362V34.856C123.362 41.192 120.419 44.776 114.403 44.776C108.323 44.776 105.443 41.128 105.443 34.856V1.76801H101.347Z" fill="#C63906"/>
<path d="M142.883 1.76801L129.378 47.464H133.731L137.443 34.152H153.443L157.155 47.464H161.507L148.003 1.76801H142.883ZM145.379 4.96801H145.507L152.547 30.696H138.339L145.379 4.96801Z" fill="#C63906"/>
<path d="M175.779 1C168.035 1 163.171 5.736 163.171 13.096C163.171 15.976 163.875 18.664 165.539 20.584C169.187 24.744 175.587 25.32 180.323 27.688C183.587 29.352 185.315 31.592 185.315 35.496C185.315 41.448 181.731 44.776 175.459 44.776C169.571 44.776 166.371 41.256 166.371 34.792V33.32H162.275V34.408C162.275 43.816 166.947 48.232 175.587 48.232C184.355 48.232 189.411 43.368 189.411 34.92C189.411 32.36 188.963 29.288 186.211 26.792C184.611 25.32 182.307 24.168 178.915 23.016C173.091 21.032 167.267 19.688 167.267 12.648C167.267 7.656 170.787 4.456 175.907 4.456C181.283 4.456 184.099 7.464 184.099 13.48H188.195C188.195 5.096 184.099 1 175.779 1Z" fill="#C63906"/>
<path d="M203.713 1.76801L190.209 47.464H194.561L198.273 34.152H214.273L217.985 47.464H222.337L208.833 1.76801H203.713ZM206.209 4.96801H206.337L213.377 30.696H199.169L206.209 4.96801Z" fill="#C63906"/>
<path d="M224.896 1.76801V47.464H228.993V26.6H237.057C243.137 26.6 244.608 28.84 245.312 32.168C245.696 34.024 245.825 36.904 245.889 39.528C246.017 44.904 246.465 46.312 247.169 47.464H251.969C250.753 46.12 250.113 44.136 250.049 40.616C249.921 31.784 250.049 25.64 242.176 24.936H242.113V24.808C247.617 23.784 250.368 19.496 250.368 13.224C250.368 5.73601 245.761 1.76801 238.785 1.76801H224.896ZM228.993 23.144V5.22401H236.417C242.945 5.22401 246.273 7.72001 246.273 14.12C246.273 20.2 242.561 23.144 236.033 23.144H228.993Z" fill="#C63906"/>
</svg>
