<svg width="25" height="24" viewBox="0 0 25 24" fill="none" xmlns="http://www.w3.org/2000/svg">
<path d="M20 0.0490723H4.21052C1.88512 0.0490723 0 1.91016 0 4.20593V19.7942C0 22.0899 1.88512 23.951 4.21052 23.951H20C22.3254 23.951 24.2105 22.0899 24.2105 19.7942V4.20593C24.2105 1.91016 22.3254 0.0490723 20 0.0490723Z" fill="#C63906"/>
<path d="M14.6271 14.9876H9.58338C9.44957 14.9876 9.32129 14.9352 9.22667 14.8418C9.1321 14.7484 9.07895 14.6217 9.07895 14.4898V9.51014C9.07895 9.37809 9.1321 9.25145 9.22667 9.15804C9.32129 9.06468 9.44957 9.01221 9.58338 9.01221H14.6271C14.761 9.01221 14.8893 9.06468 14.9839 9.15804C15.0784 9.25145 15.1316 9.37809 15.1316 9.51014V14.4898C15.1316 14.6217 15.0784 14.7484 14.9839 14.8418C14.8893 14.9352 14.761 14.9876 14.6271 14.9876ZM10.0877 13.9917H14.1229V10.0081H10.0877V13.9917Z" fill="white"/>
<path d="M8.12067 7.02042C8.08676 7.02051 8.05295 7.01722 8.01976 7.01049C7.95486 6.99741 7.89319 6.97185 7.83829 6.93524C7.78338 6.89863 7.73629 6.85171 7.69976 6.79717C7.66324 6.74258 7.63795 6.68145 7.62533 6.61722C7.61276 6.55303 7.6131 6.48696 7.62633 6.42291C7.76695 5.74856 8.13867 5.14268 8.67886 4.70731C9.2191 4.27194 9.89481 4.0337 10.5921 4.03271C10.7259 4.03271 10.8542 4.08519 10.9488 4.17857C11.0433 4.27195 11.0965 4.3986 11.0965 4.53068C11.0965 4.66274 11.0433 4.78941 10.9488 4.88277C10.8542 4.97618 10.7259 5.02861 10.5921 5.02861C10.127 5.02851 9.67619 5.1871 9.31586 5.47745C8.95557 5.76785 8.70795 6.17218 8.61495 6.62207C8.59167 6.73454 8.52976 6.83562 8.43972 6.90823C8.34962 6.98084 8.23691 7.02047 8.12067 7.02042Z" fill="white"/>
<path d="M6.23533 9.81878C6.13724 9.81878 6.04129 9.79054 5.95924 9.73741C5.87719 9.68433 5.81257 9.60875 5.77333 9.52005C5.62719 9.20424 5.55052 8.86141 5.54838 8.51417C5.54838 7.85388 5.8141 7.22057 6.28705 6.75365C6.76 6.28673 7.40143 6.02443 8.07033 6.02443C8.20671 6.02353 8.33819 6.07492 8.43695 6.16781C8.53576 6.26071 8.59414 6.38781 8.5999 6.52235C8.60276 6.58645 8.59252 6.6504 8.56976 6.71045C8.547 6.7705 8.51224 6.82541 8.46752 6.87186C8.42276 6.91836 8.369 6.95544 8.30943 6.98094C8.24986 7.00645 8.18571 7.01986 8.12076 7.02033C7.91829 7.01544 7.71691 7.05036 7.52824 7.12311C7.33962 7.19581 7.16752 7.30485 7.02195 7.44391C6.87643 7.58292 6.76038 7.74918 6.68062 7.9329C6.60081 8.11666 6.55881 8.31426 6.55714 8.51417C6.55833 8.72363 6.60586 8.93026 6.69638 9.11972C6.72981 9.19539 6.74371 9.27812 6.73671 9.36038C6.72976 9.44273 6.70214 9.52198 6.65643 9.59111C6.61072 9.66024 6.54829 9.71708 6.47476 9.75643C6.40129 9.79595 6.319 9.81661 6.23533 9.8168V9.81878Z" fill="white"/>
<path d="M10.5928 19.9674C9.83857 19.9646 9.11238 19.6851 8.55533 19.1832C7.99824 18.6813 7.6501 17.9928 7.57852 17.2516C7.56686 17.1195 7.60886 16.9883 7.69524 16.8868C7.78157 16.7853 7.90524 16.7218 8.039 16.7104C8.17281 16.6988 8.30572 16.7403 8.40853 16.8255C8.51133 16.9108 8.57567 17.0329 8.58729 17.1649C8.63529 17.6579 8.86705 18.1157 9.23762 18.4495C9.60814 18.7833 10.0911 18.9693 10.5928 18.9715C10.7264 18.9715 10.8548 19.024 10.9494 19.1174C11.0439 19.2107 11.0971 19.3374 11.0971 19.4695C11.0971 19.6016 11.0439 19.7281 10.9494 19.8216C10.8548 19.915 10.7264 19.9674 10.5928 19.9674Z" fill="white"/>
<path d="M7.06167 17.9756C6.73048 17.9756 6.40252 17.9112 6.09652 17.786C5.79057 17.661 5.51257 17.4775 5.27838 17.2463C4.80543 16.7794 4.53971 16.1462 4.53971 15.4858C4.53557 15.1819 4.59448 14.8804 4.71279 14.5999C4.83109 14.3194 5.00633 14.0657 5.22771 13.8545C5.32881 13.768 5.46062 13.7247 5.59409 13.7342C5.72757 13.7436 5.85176 13.8049 5.93938 13.9048C6.027 14.0047 6.07086 14.1348 6.06128 14.2666C6.05176 14.3983 5.98957 14.521 5.88843 14.6074C5.66286 14.8449 5.54081 15.1604 5.54848 15.4858C5.54848 15.882 5.7079 16.262 5.99167 16.5421C6.27543 16.8223 6.66033 16.9796 7.06167 16.9796C7.3319 16.9793 7.59733 16.909 7.83133 16.7756C7.889 16.7427 7.95267 16.7215 8.01867 16.7131C8.08462 16.7047 8.15167 16.7092 8.21586 16.7266C8.28005 16.7438 8.34014 16.7736 8.39267 16.8138C8.44519 16.8541 8.48914 16.9043 8.52195 16.9614C8.55476 17.0186 8.57581 17.0816 8.58381 17.1468C8.59186 17.212 8.58676 17.2782 8.56876 17.3414C8.55081 17.4047 8.52033 17.4638 8.47914 17.5154C8.43795 17.567 8.38676 17.6099 8.32867 17.6419C7.94314 17.8606 7.50629 17.9756 7.06167 17.9756Z" fill="white"/>
<path d="M7.566 15.4857C6.62957 15.4857 5.73157 15.1185 5.06943 14.4648C4.40727 13.8111 4.03529 12.9245 4.03529 12.0001C4.03529 11.0756 4.40727 10.189 5.06943 9.53535C5.73157 8.88165 6.62957 8.5144 7.566 8.5144C7.69976 8.5144 7.82804 8.56688 7.92266 8.66024C8.01724 8.7536 8.07038 8.88029 8.07038 9.01233C8.07038 9.14443 8.01724 9.27106 7.92266 9.36447C7.82804 9.45784 7.69976 9.51031 7.566 9.51031C6.89714 9.51031 6.25566 9.77262 5.78271 10.2395C5.30976 10.7065 5.04405 11.3397 5.04405 12.0001C5.04405 12.6604 5.30976 13.2937 5.78271 13.7606C6.25566 14.2275 6.89714 14.4898 7.566 14.4898C7.69976 14.4898 7.82804 14.5423 7.92266 14.6357C8.01724 14.729 8.07038 14.8557 8.07038 14.9878C8.07038 15.1199 8.01724 15.2465 7.92266 15.3399C7.82804 15.4333 7.69976 15.4857 7.566 15.4857Z" fill="white"/>
<path d="M10.5923 19.9672C10.4585 19.9672 10.3302 19.9147 10.2356 19.8214C10.141 19.728 10.0879 19.6013 10.0879 19.4693V17.4775C10.0879 17.3454 10.141 17.2188 10.2356 17.1254C10.3302 17.032 10.4585 16.9795 10.5923 16.9795C10.726 16.9795 10.8543 17.032 10.949 17.1254C11.0435 17.2188 11.0966 17.3454 11.0966 17.4775V19.4693C11.0966 19.6013 11.0435 19.728 10.949 19.8214C10.8543 19.9147 10.726 19.9672 10.5923 19.9672Z" fill="white"/>
<path d="M10.5923 6.02451C10.4585 6.02451 10.3302 5.97209 10.2356 5.87868C10.141 5.78531 10.0879 5.65863 10.0879 5.52658V4.53068C10.0879 4.3986 10.141 4.27195 10.2356 4.17857C10.3302 4.08519 10.4585 4.03271 10.5923 4.03271C10.726 4.03271 10.8543 4.08519 10.949 4.17857C11.0435 4.27195 11.0966 4.3986 11.0966 4.53068V5.52658C11.0966 5.65863 11.0435 5.78531 10.949 5.87868C10.8543 5.97209 10.726 6.02451 10.5923 6.02451Z" fill="white"/>
<path d="M16.0901 7.02042C15.9738 7.02047 15.861 6.98084 15.771 6.90823C15.6809 6.83562 15.619 6.73454 15.5958 6.62207C15.5027 6.17218 15.2551 5.76785 14.8948 5.47745C14.5345 5.1871 14.0837 5.02851 13.6186 5.02861C13.4848 5.02861 13.3565 4.97618 13.2619 4.88277C13.1673 4.78941 13.1142 4.66274 13.1142 4.53068C13.1142 4.3986 13.1673 4.27195 13.2619 4.17857C13.3565 4.08519 13.4848 4.03271 13.6186 4.03271C14.316 4.0337 14.9917 4.27194 15.5319 4.70731C16.0721 5.14268 16.4438 5.74856 16.5844 6.42291C16.5974 6.48705 16.5976 6.55312 16.5848 6.61731C16.572 6.68155 16.5465 6.74263 16.5098 6.79712C16.473 6.85157 16.4259 6.8984 16.3708 6.93482C16.3157 6.97124 16.2539 6.99665 16.1889 7.0095C16.1564 7.01642 16.1233 7.02009 16.0901 7.02042Z" fill="white"/>
<path d="M17.9757 9.81877C17.892 9.81858 17.8097 9.79792 17.7362 9.75839C17.6627 9.719 17.6003 9.66216 17.5545 9.59307C17.5089 9.52394 17.4812 9.44465 17.4743 9.36234C17.4672 9.28004 17.4811 9.19736 17.5146 9.12169C17.6055 8.93166 17.6529 8.72427 17.6538 8.51416C17.6538 8.11797 17.4944 7.73801 17.2106 7.45783C16.9269 7.17768 16.542 7.02032 16.1406 7.02032C16.0042 7.02121 15.8729 6.96978 15.774 6.87693C15.6752 6.78404 15.6169 6.65693 15.611 6.52234C15.6082 6.4583 15.6185 6.39434 15.6412 6.3343C15.664 6.27425 15.6987 6.21933 15.7435 6.17288C15.7882 6.12639 15.842 6.08926 15.9016 6.06376C15.9611 6.03825 16.0252 6.02488 16.0902 6.02441H16.1406C16.8096 6.02441 17.4509 6.28672 17.924 6.75364C18.3969 7.22056 18.6626 7.85383 18.6626 8.51416C18.6607 8.86206 18.5841 9.20559 18.4377 9.52197C18.3981 9.61044 18.3334 9.68554 18.2514 9.73825C18.1692 9.79096 18.0735 9.81891 17.9757 9.81877Z" fill="white"/>
<path d="M13.6186 19.9675C13.4848 19.9675 13.3565 19.915 13.2619 19.8216C13.1673 19.7283 13.1142 19.6016 13.1142 19.4695C13.1142 19.3374 13.1673 19.2109 13.2619 19.1174C13.3565 19.024 13.4848 18.9716 13.6186 18.9716C14.1207 18.9703 14.6045 18.785 14.9759 18.4513C15.3472 18.1176 15.5798 17.6595 15.6281 17.166C15.6338 17.1006 15.6526 17.037 15.6832 16.9787C15.7139 16.9205 15.7559 16.8687 15.8068 16.8266C15.8577 16.7844 15.9165 16.7525 15.98 16.7327C16.0433 16.7129 16.1101 16.7057 16.1763 16.7113C16.2425 16.717 16.307 16.7355 16.366 16.7659C16.425 16.7961 16.4773 16.8376 16.5201 16.8879C16.5629 16.9381 16.5952 16.9962 16.6152 17.0588C16.6352 17.1214 16.6426 17.1873 16.6368 17.2527C16.5649 17.9944 16.2161 18.6831 15.6582 19.185C15.1003 19.6867 14.3732 19.9657 13.6186 19.9675Z" fill="white"/>
<path d="M17.1494 17.9756C16.7048 17.9756 16.2679 17.8606 15.8823 17.6419C15.8242 17.6099 15.773 17.567 15.7318 17.5154C15.6906 17.4638 15.6602 17.4047 15.6422 17.3414C15.6242 17.2782 15.6192 17.212 15.6272 17.1469C15.6352 17.0816 15.6562 17.0186 15.689 16.9614C15.7218 16.9043 15.7658 16.8541 15.8183 16.8138C15.8709 16.7736 15.9309 16.7438 15.9952 16.7266C16.0593 16.7093 16.1263 16.7047 16.1923 16.7131C16.2583 16.7215 16.322 16.7427 16.3797 16.7756C16.6137 16.909 16.879 16.9793 17.1494 16.9797C17.5506 16.9797 17.9355 16.8223 18.2193 16.5421C18.503 16.262 18.6625 15.882 18.6625 15.4858C18.6702 15.1604 18.5481 14.8449 18.3225 14.6074C18.2724 14.5646 18.2314 14.5125 18.2018 14.4539C18.1721 14.3954 18.1544 14.3318 18.1497 14.2666C18.1449 14.2013 18.1533 14.1357 18.1742 14.0737C18.1952 14.0117 18.2282 13.9543 18.2716 13.9048C18.3149 13.8553 18.3678 13.8148 18.427 13.7856C18.4863 13.7563 18.5509 13.7389 18.6169 13.7342C18.6829 13.7295 18.7494 13.7377 18.8122 13.7584C18.875 13.7791 18.9332 13.8117 18.9833 13.8545C19.2046 14.0657 19.3799 14.3194 19.4982 14.5999C19.6165 14.8804 19.6754 15.1819 19.6713 15.4858C19.6713 16.1462 19.4056 16.7794 18.9326 17.2463C18.4597 17.7132 17.8182 17.9756 17.1494 17.9756Z" fill="white"/>
<path d="M16.6449 15.4857C16.5111 15.4857 16.3828 15.4333 16.2882 15.3399C16.1937 15.2465 16.1405 15.1199 16.1405 14.9878C16.1405 14.8557 16.1937 14.729 16.2882 14.6357C16.3828 14.5423 16.5111 14.4898 16.6449 14.4898C17.3138 14.4898 17.9552 14.2275 18.4282 13.7606C18.9011 13.2937 19.1668 12.6604 19.1668 12.0001C19.1668 11.3397 18.9011 10.7065 18.4282 10.2395C17.9552 9.77262 17.3138 9.51031 16.6449 9.51031C16.5111 9.51031 16.3828 9.45784 16.2882 9.36443C16.1937 9.27106 16.1405 9.14443 16.1405 9.01233C16.1405 8.88029 16.1937 8.7536 16.2882 8.66024C16.3828 8.56688 16.5111 8.5144 16.6449 8.5144C17.5812 8.5144 18.4793 8.88165 19.1414 9.53535C19.8035 10.189 20.1755 11.0756 20.1755 12.0001C20.1755 12.9245 19.8035 13.8111 19.1414 14.4648C18.4793 15.1185 17.5812 15.4857 16.6449 15.4857Z" fill="white"/>
<path d="M13.6186 19.9672C13.4848 19.9672 13.3565 19.9147 13.2619 19.8214C13.1673 19.728 13.1142 19.6013 13.1142 19.4693V17.4775C13.1142 17.3454 13.1673 17.2188 13.2619 17.1254C13.3565 17.032 13.4848 16.9795 13.6186 16.9795C13.7523 16.9795 13.8806 17.032 13.9752 17.1254C14.0698 17.2188 14.1229 17.3454 14.1229 17.4775V19.4693C14.1229 19.6013 14.0698 19.728 13.9752 19.8214C13.8806 19.9147 13.7523 19.9672 13.6186 19.9672Z" fill="white"/>
<path d="M13.6186 6.02451C13.4848 6.02451 13.3565 5.97209 13.2619 5.87868C13.1673 5.78531 13.1142 5.65863 13.1142 5.52658V4.53068C13.1142 4.3986 13.1673 4.27195 13.2619 4.17857C13.3565 4.08519 13.4848 4.03271 13.6186 4.03271C13.7523 4.03271 13.8806 4.08519 13.9752 4.17857C14.0698 4.27195 14.1229 4.3986 14.1229 4.53068V5.52658C14.1229 5.65863 14.0698 5.78531 13.9752 5.87868C13.8806 5.97209 13.7523 6.02451 13.6186 6.02451Z" fill="white"/>
<path d="M10.5923 10.0084C10.4585 10.0084 10.3302 9.95594 10.2356 9.86263C10.141 9.76921 10.0879 9.64253 10.0879 9.51044V8.51458C10.0879 8.38248 10.141 8.25585 10.2356 8.16244C10.3302 8.06907 10.4585 8.0166 10.5923 8.0166C10.726 8.0166 10.8543 8.06907 10.949 8.16244C11.0435 8.25585 11.0966 8.38248 11.0966 8.51458V9.51044C11.0966 9.64253 11.0435 9.76921 10.949 9.86263C10.8543 9.95594 10.726 10.0084 10.5923 10.0084Z" fill="white"/>
<path d="M13.6186 10.0084C13.4848 10.0084 13.3565 9.95594 13.2619 9.86263C13.1673 9.76921 13.1142 9.64253 13.1142 9.51044V8.51458C13.1142 8.38248 13.1673 8.25585 13.2619 8.16244C13.3565 8.06907 13.4848 8.0166 13.6186 8.0166C13.7523 8.0166 13.8806 8.06907 13.9752 8.16244C14.0698 8.25585 14.1229 8.38248 14.1229 8.51458V9.51044C14.1229 9.64253 14.0698 9.76921 13.9752 9.86263C13.8806 9.95594 13.7523 10.0084 13.6186 10.0084Z" fill="white"/>
<path d="M10.5923 15.9836C10.4585 15.9836 10.3302 15.931 10.2356 15.8376C10.141 15.7443 10.0879 15.6176 10.0879 15.4855V14.4897C10.0879 14.3576 10.141 14.2309 10.2356 14.1376C10.3302 14.0442 10.4585 13.9917 10.5923 13.9917C10.726 13.9917 10.8543 14.0442 10.949 14.1376C11.0435 14.2309 11.0966 14.3576 11.0966 14.4897V15.4855C11.0966 15.6176 11.0435 15.7443 10.949 15.8376C10.8543 15.931 10.726 15.9836 10.5923 15.9836Z" fill="white"/>
<path d="M13.6186 15.9836C13.4848 15.9836 13.3565 15.931 13.2619 15.8376C13.1673 15.7443 13.1142 15.6176 13.1142 15.4855V14.4897C13.1142 14.3576 13.1673 14.2309 13.2619 14.1376C13.3565 14.0442 13.4848 13.9917 13.6186 13.9917C13.7523 13.9917 13.8806 14.0442 13.9752 14.1376C14.0698 14.2309 14.1229 14.3576 14.1229 14.4897V15.4855C14.1229 15.6176 14.0698 15.7443 13.9752 15.8376C13.8806 15.931 13.7523 15.9836 13.6186 15.9836Z" fill="white"/>
<path d="M9.58367 13.992H8.57486C8.4411 13.992 8.31281 13.9395 8.21819 13.8462C8.12362 13.7528 8.07048 13.6261 8.07048 13.494C8.07048 13.362 8.12362 13.2353 8.21819 13.1419C8.31281 13.0486 8.4411 12.9961 8.57486 12.9961H9.58367C9.71743 12.9961 9.84576 13.0486 9.94028 13.1419C10.0349 13.2353 10.088 13.362 10.088 13.494C10.088 13.6261 10.0349 13.7528 9.94028 13.8462C9.84576 13.9395 9.71743 13.992 9.58367 13.992Z" fill="white"/>
<path d="M9.58367 11.0042H8.57486C8.4411 11.0042 8.31281 10.9517 8.21819 10.8583C8.12362 10.765 8.07048 10.6383 8.07048 10.5062C8.07048 10.3741 8.12362 10.2475 8.21819 10.1541C8.31281 10.0607 8.4411 10.0083 8.57486 10.0083H9.58367C9.71743 10.0083 9.84576 10.0607 9.94028 10.1541C10.0349 10.2475 10.088 10.3741 10.088 10.5062C10.088 10.6383 10.0349 10.765 9.94028 10.8583C9.84576 10.9517 9.71743 11.0042 9.58367 11.0042Z" fill="white"/>
<path d="M15.6358 13.992H14.627C14.4932 13.992 14.3649 13.9395 14.2703 13.8462C14.1758 13.7528 14.1226 13.6261 14.1226 13.494C14.1226 13.362 14.1758 13.2353 14.2703 13.1419C14.3649 13.0486 14.4932 12.9961 14.627 12.9961H15.6358C15.7696 12.9961 15.8979 13.0486 15.9924 13.1419C16.087 13.2353 16.1402 13.362 16.1402 13.494C16.1402 13.6261 16.087 13.7528 15.9924 13.8462C15.8979 13.9395 15.7696 13.992 15.6358 13.992Z" fill="white"/>
<path d="M15.6358 11.0042H14.627C14.4932 11.0042 14.3649 10.9517 14.2703 10.8583C14.1758 10.765 14.1226 10.6383 14.1226 10.5062C14.1226 10.3741 14.1758 10.2475 14.2703 10.1541C14.3649 10.0607 14.4932 10.0083 14.627 10.0083H15.6358C15.7696 10.0083 15.8979 10.0607 15.9924 10.1541C16.087 10.2475 16.1402 10.3741 16.1402 10.5062C16.1402 10.6383 16.087 10.765 15.9924 10.8583C15.8979 10.9517 15.7696 11.0042 15.6358 11.0042Z" fill="white"/>
</svg>
